<svg id="图层_1" data-name="图层 1" xmlns="http://www.w3.org/2000/svg" viewBox="0 0 188 49.99"><defs><style>.cls-1{fill:#fff;}.cls-2{fill:#767677;}.cls-3{fill:#f37726;}.cls-4{fill:#989798;}.cls-5{fill:#6f7070;}</style></defs><title>jupyter_logo1</title><g id="logo"><g id="Group"><g id="g"><g id="path"><path id="path0_fill" data-name="path0 fill" class="cls-1" d="M56.5,31.16c0,5.14-.4,6.82-1.44,8.06a6.17,6.17,0,0,1-4.19,1.64l.39,3.06a9.65,9.65,0,0,0,6.54-2.44c1.87-1.95,2.53-4.65,2.53-8.79V13.23H56.49V31.16Z" transform="translate(-0.36 -0.31)"/></g><path id="path1_fill" data-name="path1 fill" class="cls-1" d="M85.12,28.81a57.87,57.87,0,0,0,.18,5.85H81.94l-.22-3.52h-.09a7.91,7.91,0,0,1-7,4c-3.31,0-7.27-1.87-7.27-9.4V13.19h3.84v11.9c0,4.08,1.22,6.83,4.7,6.83a5.56,5.56,0,0,0,3-1,5.65,5.65,0,0,0,2-2.53,5.93,5.93,0,0,0,.35-2V13.21h3.84v15.6Z" transform="translate(-0.36 -0.31)"/><path id="path2_fill" data-name="path2 fill" class="cls-1" d="M92.35,20.21c0-2.75-.08-5-.17-7h3.45l.17,3.68h.09a8.24,8.24,0,0,1,3.17-3.14,8.15,8.15,0,0,1,4.32-1c5.09,0,8.93,4.39,8.93,10.9,0,7.72-4.61,11.53-9.59,11.53a7.36,7.36,0,0,1-6.49-3.37h-.09V43.39H92.35V20.21Zm3.8,5.71a9.55,9.55,0,0,0,.17,1.6,6,6,0,0,0,2.09,3.28,5.89,5.89,0,0,0,3.66,1.28c4.06,0,6.4-3.37,6.4-8.28,0-4.31-2.22-8-6.27-8a6.06,6.06,0,0,0-3.72,1.41,6.13,6.13,0,0,0-2.07,3.42,6.52,6.52,0,0,0-.26,1.59v3.68Z" transform="translate(-0.36 -0.31)"/><path id="path3_fill" data-name="path3 fill" class="cls-1" d="M119.1,13.21l4.61,12.68c.48,1.41,1,3.1,1.36,4.39h.08c.4-1.28.83-2.92,1.36-4.47l4.18-12.59h4.06L129,28.52c-2.75,7.35-4.61,11.12-7.23,13.43a10.27,10.27,0,0,1-4.7,2.52l-1-3.28a10,10,0,0,0,3.36-1.91,11.72,11.72,0,0,0,3.22-4.34A2.84,2.84,0,0,0,123,34a3.63,3.63,0,0,0-.26-1l-7.8-19.76h4.16Z" transform="translate(-0.36 -0.31)"/><path id="path4_fill" data-name="path4 fill" class="cls-1" d="M144.82,7V13.2h5.49v3h-5.49V27.73c0,2.64.74,4.17,2.88,4.17a8.7,8.7,0,0,0,2.22-.26l.18,2.92a9.17,9.17,0,0,1-3.4.53,5.22,5.22,0,0,1-2.25-.35,5.36,5.36,0,0,1-1.9-1.28c-1.09-1.16-1.48-3.06-1.48-5.59V16.17H137.8v-3h3.27V8.05Z" transform="translate(-0.36 -0.31)"/><path id="path5_fill" data-name="path5 fill" class="cls-1" d="M157.38,24.64c.09,5.28,3.4,7.45,7.23,7.45A13.74,13.74,0,0,0,170.44,31l.66,2.79a16.91,16.91,0,0,1-7,1.33c-6.49,0-10.37-4.35-10.37-10.82s3.75-11.57,9.89-11.57c6.88,0,8.72,6.16,8.72,10.11a13.92,13.92,0,0,1-.13,1.82H157.38Zm11.24-2.79c0-2.48-1-6.34-5.31-6.34-3.88,0-5.57,3.63-5.88,6.34h11.19Z" transform="translate(-0.36 -0.31)"/><path id="path6_fill" data-name="path6 fill" class="cls-1" d="M177.94,19.9c0-2.53,0-4.7-.17-6.7h3.36l.13,4.22h.17a6.34,6.34,0,0,1,5.84-4.7,4,4,0,0,1,1.09.13v3.68a5.25,5.25,0,0,0-1.31-.13c-2.7,0-4.61,2.08-5.14,5a12.32,12.32,0,0,0-.17,1.82V34.66h-3.8Z" transform="translate(-0.36 -0.31)"/></g></g><path id="path7_fill" data-name="path7 fill" class="cls-2" d="M37.19,3.15a3,3,0,0,1-.42,1.68A3,3,0,0,1,35.49,6a2.9,2.9,0,0,1-1.69.24,2.93,2.93,0,0,1-1.55-.75A3,3,0,0,1,31.38,4a3.09,3.09,0,0,1,.1-1.73A3,3,0,0,1,34.12.31a3,3,0,0,1,3.07,2.84Z" transform="translate(-0.36 -0.31)"/><path id="path8_fill" data-name="path8 fill" class="cls-3" d="M20,38.11c-7.85,0-14.7-2.87-18.26-7.13a19.54,19.54,0,0,0,7.07,9.47,19.22,19.22,0,0,0,22.4,0A19.54,19.54,0,0,0,38.28,31C34.71,35.24,27.85,38.11,20,38.11Z" transform="translate(-0.36 -0.31)"/><path id="path9_fill" data-name="path9 fill" class="cls-3" d="M20,10.42c7.85,0,14.71,2.88,18.27,7.13A19.54,19.54,0,0,0,31.2,8.08a19.22,19.22,0,0,0-22.4,0,19.54,19.54,0,0,0-7.07,9.47C5.3,13.3,12.15,10.42,20,10.42Z" transform="translate(-0.36 -0.31)"/><path id="path10_fill" data-name="path10 fill" class="cls-4" d="M9.23,46.39a3.8,3.8,0,0,1-.54,2.11A3.72,3.72,0,0,1,5,50.26,3.68,3.68,0,0,1,3,49.32a3.74,3.74,0,0,1-1.09-1.88,3.76,3.76,0,0,1,1.42-3.91,3.65,3.65,0,0,1,2-.72A3.7,3.7,0,0,1,8,43.8a3.8,3.8,0,0,1,1.2,2.59Z" transform="translate(-0.36 -0.31)"/><path id="path11_fill" data-name="path11 fill" class="cls-5" d="M2.63,9.46a2.19,2.19,0,0,1-1.22-.32,2.29,2.29,0,0,1-.85-1A2.22,2.22,0,0,1,.39,6.92,2.1,2.1,0,0,1,.94,5.77,2.16,2.16,0,0,1,4.3,6a2.18,2.18,0,0,1,.42,1.21,2.24,2.24,0,0,1-.57,1.58,2.2,2.2,0,0,1-1.52.71Z" transform="translate(-0.36 -0.31)"/></g></svg>