<svg height="496pt" viewBox="0 -3 496 496" width="496pt" xmlns="http://www.w3.org/2000/svg"><path d="m32 356.945312h16v16h-16zm0 0"/><path d="m64 356.945312h16v16h-16zm0 0"/><path d="m224 372.945312h16v16h-16zm0 0"/><path d="m192 372.945312h16v16h-16zm0 0"/><path d="m32 228.945312h16v16h-16zm0 0"/><path d="m64 228.945312h16v16h-16zm0 0"/><path d="m224 244.945312h16v16h-16zm0 0"/><path d="m192 244.945312h16v16h-16zm0 0"/><path d="m32 100.945312h16v16h-16zm0 0"/><path d="m64 100.945312h16v16h-16zm0 0"/><path d="m224 116.945312h16v16h-16zm0 0"/><path d="m192 116.945312h16v16h-16zm0 0"/><path d="m472 108.945312h-81.886719l-32 16h-86.113281v-32c0-13.234374-10.769531-24-24-24h-224c-13.230469 0-24 10.765626-24 24v48c0 13.230469 10.769531 24 24 24h8v32h-8c-13.230469 0-24 10.765626-24 24v48c0 13.230469 10.769531 24 24 24h8v32h-8c-13.230469 0-24 10.765626-24 24v48c0 13.230469 10.769531 24 24 24h224c13.230469 0 24-10.769531 24-24v-16h200c13.230469 0 24-10.769531 24-24v-224c0-13.234374-10.769531-24-24-24zm-456 32v-48c0-4.410156 3.585938-8 8-8h224c4.414062 0 8 3.589844 8 8v48c0 4.40625-3.585938 8-8 8h-224c-4.414062 0-8-3.59375-8-8zm32 24h176v32h-176zm-32 104v-48c0-4.410156 3.585938-8 8-8h224c4.414062 0 8 3.589844 8 8v48c0 4.40625-3.585938 8-8 8h-224c-4.414062 0-8-3.59375-8-8zm32 24h176v32h-176zm208 104c0 4.40625-3.585938 8-8 8h-224c-4.414062 0-8-3.59375-8-8v-48c0-4.410156 3.585938-8 8-8h224c4.414062 0 8 3.589844 8 8zm216-32h-200v-16c0-13.234374-10.769531-24-24-24h-8v-32h8c13.230469 0 24-10.769531 24-24v-48c0-13.234374-10.769531-24-24-24h-8v-32h8c13.230469 0 24-10.769531 24-24h89.886719l32-16h78.113281c4.414062 0 8 3.589844 8 8v40h-192v16h192v168c0 4.40625-3.585938 8-8 8zm0 0"/><path d="m384 140.945312h80v16h-80zm0 0"/><path d="m288 348.945312h176v-128h-176zm16-112h144v96h-144zm0 0"/><path d="m320 252.945312h112v16h-112zm0 0"/><path d="m320 284.945312h112v16h-112zm0 0"/><path d="m352 68.945312h136v-16h-152v11.054688l-38.113281-19.054688 38.113281-19.058593v11.058593h120v-16h-104v-20.945312l-89.886719 44.945312 89.886719 44.941407zm0 0"/><path d="m472 20.945312h16v16h-16zm0 0"/><path d="m400 420.945312h-112v16h128v-11.058593l38.113281 19.058593-38.113281 19.054688v-11.054688h-96v16h80v20.941407l89.886719-44.941407-89.886719-44.945312zm0 0"/><path d="m288 452.945312h16v16h-16zm0 0"/></svg>