<svg height="496pt" viewBox="0 0 496 496" width="496pt" xmlns="http://www.w3.org/2000/svg"><path d="m496 390.496094v-60.984375l-30.257812-6.375c-1.40625-4.058594-3.039063-8.015625-4.886719-11.847657l16.878906-25.890624-43.125-43.117188-25.890625 16.871094c-3.832031-1.847656-7.796875-3.488282-11.847656-4.894532l-6.375-30.257812h-22.496094v-224h-299.3125l-68.6875 68.6875v347.3125h254.398438l-12.132813 18.609375 43.125 43.109375 25.890625-16.863281c3.832031 1.847656 7.796875 3.488281 11.847656 4.886719l6.375 30.257812h60.984375l6.375-30.257812c4.058594-1.40625 8.015625-3.039063 11.847657-4.886719l25.890624 16.863281 43.125-43.109375-16.878906-25.890625c1.847656-3.832031 3.488282-7.796875 4.886719-11.847656zm-432-363.183594v36.6875h-36.6875zm-48 52.6875h64v-64h272v208h-22.496094l-6.375 30.257812c-4.058594 1.40625-8.015625 3.039063-11.847656 4.894532l-25.890625-16.871094-43.125 43.117188 16.878906 25.890624c-1.847656 3.832032-3.488281 7.800782-4.886719 11.847657l-30.257812 6.367187v60.984375l30.257812 6.375c.367188 1.074219.886719 2.074219 1.292969 3.136719h-239.550781zm441.230469 352.472656-24.765625 24.765625-22.863282-14.910156-4.175781 2.246094c-5.585937 3.011719-11.546875 5.472656-17.730469 7.320312l-4.550781 1.371094-5.640625 26.734375h-35.015625l-5.632812-26.734375-4.550781-1.371094c-6.175782-1.847656-12.144532-4.308593-17.730469-7.320312l-4.175781-2.246094-22.863282 14.902344-24.765625-24.765625 14.902344-22.863282-2.246094-4.175781c-3.011719-5.585937-5.472656-11.546875-7.320312-17.730469l-1.371094-4.550781-26.734375-5.640625v-35.015625l26.734375-5.632812 1.371094-4.550781c1.847656-6.175782 4.308593-12.144532 7.320312-17.730469l2.246094-4.175781-14.910156-22.863282 24.773437-24.765625 22.863282 14.902344 4.175781-2.246094c5.585937-3.011719 11.546875-5.472656 17.730469-7.320312l4.550781-1.371094 5.640625-26.734375h35.015625l5.632812 26.734375 4.550781 1.371094c6.175782 1.847656 12.144532 4.308593 17.730469 7.320312l4.175781 2.246094 22.863282-14.902344 24.773437 24.765625-14.910156 22.863282 2.246094 4.175781c3.011719 5.585937 5.472656 11.546875 7.320312 17.730469l1.371094 4.550781 26.734375 5.640625v35.015625l-26.734375 5.632812-1.371094 4.550781c-1.847656 6.175782-4.308593 12.144532-7.320312 17.730469l-2.246094 4.175781zm0 0"/><path d="m360 280c-44.113281 0-80 35.886719-80 80s35.886719 80 80 80 80-35.886719 80-80-35.886719-80-80-80zm0 144c-35.289062 0-64-28.710938-64-64s28.710938-64 64-64 64 28.710938 64 64-28.710938 64-64 64zm0 0"/><path d="m360 312c-26.472656 0-48 21.527344-48 48s21.527344 48 48 48 48-21.527344 48-48-21.527344-48-48-48zm0 80c-17.648438 0-32-14.351562-32-32s14.351562-32 32-32 32 14.351562 32 32-14.351562 32-32 32zm0 0"/><path d="m248 208c48.519531 0 88-39.480469 88-88s-39.480469-88-88-88-88 39.480469-88 88 39.480469 88 88 88zm8-16.472656v-63.527344h63.527344c-3.703125 33.3125-30.207032 59.824219-63.527344 63.527344zm63.527344-79.527344h-63.527344v-63.527344c33.320312 3.703125 59.824219 30.214844 63.527344 63.527344zm-79.527344-63.527344v143.054688c-35.945312-4-64-34.535156-64-71.527344s28.054688-67.535156 64-71.527344zm0 0"/><path d="m32 384h48v-96h-48zm16-80h16v64h-16zm0 0"/><path d="m96 384h48v-128h-48zm16-112h16v96h-16zm0 0"/><path d="m160 384h48v-160h-48zm16-144h16v128h-16zm0 0"/><path d="m32 96h112v16h-112zm0 0"/><path d="m32 128h112v16h-112zm0 0"/><path d="m32 160h112v16h-112zm0 0"/><path d="m32 192h112v16h-112zm0 0"/></svg>